# xmcd
#
# Track frame offsets: 
#        150
#        19581
#        29698
#        57742
#        76222
#        97178
#        117847
#        128596
#        141159
#        161858
#        190887
#        207215
#
# Disc length: 2986 seconds
#
# Revision: 0
# Processed by: cddbd v1.5.2PL0 Copyright (c) Steve Scherf et al.
# Submitted via: ExactAudioCopyFreeDBPlugin 1.0
#
DISCID=aa0ba80c
DTITLE=John Lee Hooker - Boom Boom
DYEAR=1992
DGENRE=Blues
TTITLE0=Boom Boom
TTITLE1=I'm Bad Like Jesse James
TTITLE2=Same Old Blues Again
TTITLE3=Sugar Mama
TTITLE4=Trick Bag (Shoppin' for my Tombstone)
TTITLE5=Boogie At Russian Hill
TTITLE6=Hittin' The Bottle Again
TTITLE7=Bottle Up And Go
TTITLE8=Thought I Heard
TTITLE9=I Ain't Gonna Suffer No More
TTITLE10=Dimples
TTITLE11=Ain't No Love In This House
EXTD=
EXTT0=
EXTT1=
EXTT2=
EXTT3=
EXTT4=
EXTT5=
EXTT6=
EXTT7=
EXTT8=
EXTT9=
EXTT10=
EXTT11=
PLAYORDER=
